<?xml version="1.0" encoding="utf-8"?>
<!-- Generator: Adobe Illustrator 26.0.0, SVG Export Plug-In . SVG Version: 6.00 Build 0)  -->
<svg version="1.1" id="图层_1" xmlns="http://www.w3.org/2000/svg" xmlns:xlink="http://www.w3.org/1999/xlink" x="0px" y="0px"
	 viewBox="0 0 190.8 193.1" style="enable-background:new 0 0 190.8 193.1;" xml:space="preserve">
<style type="text/css">
	.st0{fill:#801381;}
	.st1{fill:#836CAF;}
	.st2{fill:#781D75;}
	.st3{fill:#688A32;}
	.st4{fill:#3E2965;}
	.st5{fill:#3B83C5;}
	.st6{fill:#F29A71;}
	.st7{fill:#E61C16;}
	.st8{fill:#5E9999;}
	.st9{fill:#95C436;}
	.st10{fill:#FFFFFF;}
	.st11{font-family:'ArialMT';}
	.st12{font-size:7.8364px;}
	.st13{font-size:6.0961px;}
</style>
	<path class="st0" d="M150.3,131.1v59.3c-0.3,0.1-0.7,0.2-1,0.3c-13.4,4.4-17.2,1.9-18.4,0s-1.6-1.6-4.3-1.9
	c-2.6-0.4-5.1-4.6-6.1-9.6s-3.3-11.2-5.4-19.2c-2.1-7.9,0-8.5,1.3-9.2s1.8-1.2,1.3-3.8s-1.1-4.8,0.4-5.9c2.2-1.6,2.7-1.5,3.4-4.9
	c0.7-3.4,3-2.8,4.3-5.1L150.3,131.1L150.3,131.1z" name="RHM"/>
	<path class="st1" d="M161.5,16.2V74h-8.9c0.6-0.5,1.2-0.9,1.6-1.3c1.4-1.1,1.3-3.6-1.7-3.3c-0.9,0.1-1.6,0-2.3-0.3
	c0.2,0.2,0-52.9,0-52.9L161.5,16.2L161.5,16.2z" name="RM3"/>
	<path class="st2" d="M133.1,16.2v36.5c-1.2,0.3-2.6,0.8-4.3,1.5c-6.3,2.3-6.9-1-7.8-2.3c-1-1.4-5.1-0.6-5.9-2s-2.7-3.2-5.6-3.1
	c-2.9,0.1-4.4-8.1-4.4-8.1V16.2h27H133.1z" name="RM1"/>
	<path class="st3" d="M150.2,16.2c0,0,0.2,53.1,0,52.9c-1.6-0.8-2.5-2.7-2.5-5.7c-0.1-4.2-1.8-8-3.4-7.6c-1.5,0.4-3.9,0.4-5.1-2.1
	c-0.9-1.9-2.6-2-6-1V16.2H150.2z" name="RM2"/>
	<path class="st4" d="M190.8,39.6v26.2c-1.8,0.8-2.6,0.9-2.5,4.4c0.1,3.6-3.9,3.7-3.9,3.7h-5.5V24.3c5.2,3.2,6.8,13.2,6.8,13.2
	C190.6,37.3,190.8,39.6,190.8,39.6z" name="RM5"/>
	<path class="st5" d="M184.4,74c1.9,4.2,0.6,8.7-1.3,9.9c-1.8,1.2-3.9,2.5-1.9,4.9c1.9,2.4,0.6,6.3-0.9,6.9c-1.4,0.6-2.4,1-1.6,2.5
	c0.9,1.5,1.7,5.5,0,7.5s-2.8,1.2-2.6,3.6s-0.6,3.1-2.3,4s-3.7,1.4-2.2,4c1.4,2.6,2.4,5.7,0,6.7s-3.4,2.8-2.7,5.4
	c0.2,0.7,0.4,1.2,0.6,1.7h-19.2h-24.4c1.3-2.3-0.4-4.4,5.2-5s8.4-0.2,9.3-3.4c0.9-3.2,1.7-5,5.2-5.1c3.6-0.1,4.3-0.4,4.7-2.4
	s-0.6-2.7,1.1-3.7c1.6-1,2.7-2.3,2.3-4.9s-3.1-12.1-4.2-15.4c-1.1-3.3-0.7-5.9,1.5-6.8s2.2-3.7,0.5-6.2c-1.2-1.7-0.2-3.1,1-4.2h8.9
	h17.4C178.8,74,184.4,74,184.4,74z" name="RMF"/>
	<path class="st6" d="M178.9,24.3V74h-17.4V16.2h11.1c2.1,3.3,1.8,6.9,2.9,7.6C176.9,24.7,178.9,24.3,178.9,24.3z" name="RM4"/>
	<path class="st7" d="M172.6,16.2h-11.1h-11.4h-17H132V6.7c2.1-1.3,3.7-2,5.7-4.2s8-1.8,10.2,0s3.7,3.6,7.1,4.9
	c3.4,1.3,8.6,1.8,14.4,5.5C170.9,13.9,171.9,15,172.6,16.2z" name="RT"/>
	<path class="st8" d="M168.5,145.8c1.1,4.6,5.2,14.2,1.7,16.4c-3.6,2.2-0.3,5,0,8.8s-4.5,3.4-4.5,4.9s0.6,2.4-1.6,4.1
	c-2.2,1.6-3.3,2.3-3.3,4c0,1.6,1.8,2.3-10.4,6.3V131h19.2c0.7,1.5,1.1,2.6-0.7,4.3C166.3,137.5,167.5,141.2,168.5,145.8z" name="RHL"/>
	<path class="st9" d="M132.1,6.7v9.5h-27v-2.1c0,0,6.1-2.5,13.8-4.2C126.6,8.2,132.1,6.7,132.1,6.7z" name="RH"/>
	<path class="st8" d="M41.7,132.5v60c-0.9-0.2-1.8-0.4-2.4-0.4c-1.6-0.1-8.5-1.2-9.1-3.7c-0.6-2.5,0.2-3.1-3.1-3.3
	c-3.3-0.2-6.8-3.4-6.7-5c0.1-1.6-0.8-2.4-2.3-3.3s-3.6-2.9-2.7-4.5c0.9-1.7-1.8-2.5-3.2-4.3c-1.4-1.7-0.1-10.7,2.1-18.7
	c2.2-7.9,3.2-11.5,0.5-13c-1-0.5-1.4-1.9-1.4-3.5h28.3V132.5z" name="LHL"/>
	<path class="st0" d="M57.5,132.5c0,1.7,0,3.1,0.4,3.3c0.8,0.4,7.7,1,8.5,4.8c0.8,3.7-0.4,9.2,0.8,9.5c1.2,0.3,4,3.1,2.1,10.4
	c-1.8,7.3-4.3,24.5-7.2,24.5c-2.8,0-4.3-0.3-5.3,2.5c-1.1,2.8-3.8,1.7-5.1,1.7c-1.4,0-4,4-6.1,4c-1.2,0-2.7-0.3-4-0.6v-60
	L57.5,132.5L57.5,132.5z" name="LHM"/>
	<path class="st5" d="M57.5,128.6c0.1,1.2,0,2.7,0,4.1l0,0H41.7H13.3c-0.1-2.9,1-7,2.1-10.4c1.8-5.4,1.4-6.4-0.7-7.3
	s-3.7-2.2-3.2-3.8c0.6-1.5-2.2-3-3.5-3.7s-0.9-2.4-0.9-3.2s-3.7-3.8-4.3-4.6c-0.6-0.8-0.7-5.1,0-6.8c0.7-1.6-2-3-2.8-3.4
	c-0.6-0.2,2-13.6,1.2-14h11.9h17.3h4.8c-0.5,1.4-1.1,3-1.6,5.5c-1,4.7-3.5,11.9-1.3,13.5c2.2,1.7,4.1,2.5,2.9,6.1
	c-1.2,3.6-1.2,4.1,0.3,4.8s3,1,2.9,3.8s3.1,1.9,3.9,5c0.8,3.2,1.9,3.7,3.8,4.9c1.9,1.2-0.2,4.1,3.2,5
	C52.6,125.1,57.3,126.1,57.5,128.6z" name="LMF"/>
	<path class="st4" d="M13.1,18v57.6H1.2C0.4,75.1,0,75.3,0,75.3V31c0-0.9,0.5-1.6,1.2-2.2c0.1-0.1,0.1-0.2,0.2-0.3
	c0.2-0.8,0.2-7.3,3.7-8.4c3.5-1.2,3.8-0.6,4.1-2.1H13.1z" name="LM5" />
	<polygon class="st6" points="30.4,64.7 30.4,75.5 13.1,75.5 13.1,18 30.4,18 " name="LM4"/>
	<path class="st1" d="M30.4,18v46.8v10.8h4.8c0.5-1.3,0.8-2.5,0.9-4.1c0.2-3.3-5-2.5-5-6.6c0-4.2,3.1-5,4.9-5.4
	c1.8-0.4,3.4-1.2,3.8-4.7c0.1-0.8,0.2-1.4,0.4-2s0.6-1.1,1.1-1.5V18H30.4z" name="LM3"/>
	<path class="st3" d="M59,48.7c0,0-3.2-3-5.4-0.8s-2.1,4.5-6.4,3.8c-1.7-0.3-2.9-0.5-3.8-0.7c-0.8-0.2-1.5,0-2.1,0.4V18h17.9v30.7
	l0,0C59,48.7,59,48.7,59,48.7z" name="LM2"/>
	<path class="st7" d="M59.2,4.3V18H41.3H30.4H13.1h-4c0.3-1.5,1.2-3.2,4-4.5s6.2-3.5,8.6-5s5.3-2.1,8.1-2.8C32.7,5,35.3,1.9,40.4,1
	c5.1-0.8,9.5-1.9,11.8,0s2.8,2.9,4.3,3C57.9,4.1,59.2,4.3,59.2,4.3z" name="LT"/>
	<path class="st9" d="M59.2,4.3l0.5-0.6c0,0,6.4-1,8.9,0.7s7.8-0.8,9.6,3c1.7,3.8,1,4.2,3.1,5.2c2.1,1.1,4.6,4.6,0.4,5.3H59.2V4.3z"
		  name="LH"/>
	<path class="st2" d="M81.7,18c0,0,0.1,11.9-1.5,18.6c-1.7,6.7-6.5,4.3-7.1,4.3s-1.9,8.9-5.8,8.9c-3.4,0-7.1-0.8-8-1l0,0V18H81.7z" name="LM1"/>
<!--<text transform="matrix(1 0 0 1 40.1156 14.2577)" class="st10 st11 st12">T</text>-->
<!--<text transform="matrix(1 0 0 1 67.0511 14.2577)" class="st10 st11 st12">H</text>-->
<!--<text transform="matrix(1 0 0 1 65.0511 34.4017)" class="st10 st11 st12">M1</text>-->
<!--<text transform="matrix(1 0 0 1 44.5541 38.4662)" class="st10 st11 st12">M2</text>-->
<!--<text transform="matrix(1 0 0 1 16.1025 38.4662)" class="st10 st11 st12">M4</text>-->
<!--<text transform="matrix(1 0 0 1 1.1153 38.4662)" class="st10 st11 st12">M5</text>-->
<!--<text transform="matrix(1 0 0 1 16.4702 105.9501)" class="st10 st11 st12">MF</text>-->
<!--<text transform="matrix(1 0 0 1 24.1476 163.3049)" class="st10 st11 st12">HL</text>-->
<!--<text transform="matrix(1 0 0 1 47.5024 163.3049)" class="st10 st11 st12">HM</text>-->
<!--<text transform="matrix(1 0 0 1 31.6468 38.0018)" class="st10 st11 st13">M3</text>-->
</svg>
